<?xml version="1.0" encoding="UTF-8"?>
<svg xmlns="http://www.w3.org/2000/svg" width="56" height="56" viewBox="0 0 56 56" fill="none">
  <path d="M56 28C56 35.4261 53.05 42.5479 47.799 47.799C42.548 53.05 35.4261 56 28 56C20.5739 56 13.452 53.05 8.201 47.799C2.94999 42.5479 0 35.4261 0 28C0 20.5739 2.94999 13.452 8.201 8.20099C13.452 2.94997 20.5739 0 28 0C35.4261 0 42.548 2.94997 47.799 8.20099C53.05 13.452 56 20.5739 56 28Z" fill="#D9DB4D"></path>
  <path d="M28.6006 30.7402L22.1306 37.2102C21.6323 37.7055 20.9582 37.9835 20.2556 37.9835C19.553 37.9835 18.879 37.7055 18.3806 37.2102C17.8854 36.7118 17.6074 36.0378 17.6074 35.3352C17.6074 34.6326 17.8854 33.9586 18.3806 33.4602L24.8506 26.9902" stroke="black" stroke-width="2" stroke-linecap="round" stroke-linejoin="round"></path>
  <path d="M21.6995 18.1602L28.1695 24.6302C28.6679 25.1254 29.3419 25.4034 30.0445 25.4034C30.7471 25.4034 31.4212 25.1254 31.9195 24.6302C32.4148 24.1318 32.6927 23.4578 32.6927 22.7552C32.6927 22.0526 32.4148 21.3785 31.9195 20.8802L25.2595 14.2302C24.3125 13.2836 23.0284 12.752 21.6895 12.752C20.3506 12.752 19.0665 13.2836 18.1195 14.2302L10.9895 21.3702C10.5148 21.8357 10.1377 22.3912 9.88026 23.0042C9.62283 23.6171 9.49023 24.2753 9.49023 24.9402C9.49023 25.605 9.62283 26.2632 9.88026 26.8762C10.1377 27.4892 10.5148 28.0447 10.9895 28.5102" stroke="black" stroke-width="2" stroke-linecap="round" stroke-linejoin="round"></path>
  <path d="M32.3392 34.4902L25.8692 40.9602C25.3725 41.4548 24.7001 41.7325 23.9992 41.7325C23.2982 41.7325 22.6258 41.4548 22.1292 40.9602C21.8815 40.7148 21.685 40.4227 21.5509 40.1009C21.4167 39.7791 21.3477 39.4339 21.3477 39.0852C21.3477 38.7366 21.4167 38.3914 21.5509 38.0696C21.685 37.7478 21.8815 37.4556 22.1292 37.2102L28.5992 30.7402" stroke="black" stroke-width="2" stroke-linecap="round" stroke-linejoin="round"></path>
  <path d="M27.6998 16.6602L29.9698 14.3903C30.4612 13.8977 31.0449 13.5069 31.6875 13.2403C32.3301 12.9737 33.019 12.8364 33.7148 12.8364C34.4105 12.8364 35.0994 12.9737 35.7421 13.2403C36.3847 13.5069 36.9684 13.8977 37.4598 14.3903L44.9598 21.8903C45.9496 22.8853 46.5053 24.2317 46.5053 25.6353C46.5053 27.0388 45.9496 28.3852 44.9598 29.3802L29.6298 44.7003C29.3843 44.9479 29.0923 45.1444 28.7704 45.2786C28.4486 45.4127 28.1034 45.4818 27.7548 45.4818C27.4061 45.4818 27.0609 45.4127 26.7391 45.2786C26.4173 45.1444 26.1252 44.9479 25.8798 44.7003C25.3851 44.2036 25.1074 43.5311 25.1074 42.8302C25.1074 42.1293 25.3851 41.4569 25.8798 40.9602L32.3498 34.4902" stroke="black" stroke-width="2" stroke-linecap="round" stroke-linejoin="round"></path>
  <path d="M24.8498 26.9902L18.3798 33.4601C18.1343 33.7078 17.8423 33.9044 17.5204 34.0385C17.1986 34.1726 16.8534 34.2417 16.5048 34.2417C16.1561 34.2417 15.8109 34.1726 15.4891 34.0385C15.1673 33.9044 14.8752 33.7078 14.6298 33.4601C14.1351 32.9635 13.8574 32.2911 13.8574 31.5901C13.8574 30.8892 14.1351 30.2168 14.6298 29.7202L23.9398 20.4102" stroke="black" stroke-width="2" stroke-linecap="round" stroke-linejoin="round"></path>
</svg>
