<?xml version="1.0" encoding="UTF-8"?>
<svg xmlns="http://www.w3.org/2000/svg" width="56" height="56" viewBox="0 0 56 56" fill="none">
  <path d="M56 28C56 35.4261 53.05 42.5479 47.799 47.799C42.548 53.05 35.4261 56 28 56C20.5739 56 13.452 53.05 8.201 47.799C2.94999 42.5479 0 35.4261 0 28C0 20.5739 2.94999 13.4521 8.201 8.20105C13.452 2.95003 20.5739 0 28 0C35.4261 0 42.548 2.95003 47.799 8.20105C53.05 13.4521 56 20.5739 56 28Z" fill="#D9DB4D"></path>
  <path d="M27.9998 45.74C25.6701 45.74 23.3633 45.2812 21.211 44.3896C19.0587 43.4981 17.103 42.1914 15.4557 40.5441C13.8084 38.8968 12.5017 36.9411 11.6101 34.7888C10.7186 32.6365 10.2598 30.3296 10.2598 28C10.2598 25.6704 10.7186 23.3635 11.6101 21.2112C12.5017 19.0589 13.8084 17.1032 15.4557 15.4559C17.103 13.8086 19.0587 12.5019 21.211 11.6104C23.3633 10.7188 25.6701 10.26 27.9998 10.26C32.6978 10.2706 37.1997 12.1443 40.518 15.4701C43.8362 18.7958 45.6998 23.302 45.6998 28" stroke="black" stroke-width="2" stroke-linecap="round" stroke-linejoin="round"></path>
  <path d="M21.5391 11.52C24.3891 12.46 26.9791 16.11 23.3491 20.41C19.7191 24.71 24.5991 30.68 19.5091 33.27C14.4191 35.86 11.0391 33.27 11.0391 33.27" stroke="black" stroke-width="2" stroke-linecap="round" stroke-linejoin="round"></path>
  <path d="M44.8607 22.52C41.5307 22.52 38.4107 23.29 37.2207 21.34C36.0307 19.39 32.5507 21.09 31.5907 17.72C30.6307 14.35 32.1007 12.72 34.4507 11.72" stroke="black" stroke-width="2" stroke-linecap="round" stroke-linejoin="round"></path>
  <path d="M35.2296 45.25C37.6903 43.1386 40.0056 40.8635 42.1596 38.4401C43.1074 37.3487 43.6512 35.9647 43.6996 34.52C43.7064 33.9079 43.5874 33.301 43.35 32.7368C43.1127 32.1726 42.7619 31.6631 42.3196 31.24C41.8945 30.8009 41.3845 30.4529 40.8206 30.2174C40.2567 29.9819 39.6507 29.8637 39.0396 29.87C38.2969 29.865 37.5625 30.0256 36.8896 30.34C36.2624 30.6296 35.7061 31.0529 35.2596 31.5801C34.8061 31.0476 34.2388 30.6238 33.5996 30.34C32.9389 30.0313 32.2188 29.8709 31.4896 29.87C30.8812 29.8623 30.2778 29.98 29.717 30.2157C29.1561 30.4514 28.6498 30.8 28.2296 31.24C27.7916 31.6633 27.445 32.1718 27.2111 32.7342C26.9772 33.2966 26.861 33.901 26.8696 34.51C26.8624 35.137 26.9535 35.7612 27.1396 36.36C27.4114 37.087 27.8035 37.7631 28.2996 38.36C29.0811 39.3379 29.9298 40.2601 30.8396 41.12C31.9329 42.1933 33.3963 43.57 35.2296 45.25Z" stroke="black" stroke-width="2" stroke-linecap="round" stroke-linejoin="round"></path>
</svg>
