<?xml version="1.0" encoding="UTF-8"?>
<svg xmlns="http://www.w3.org/2000/svg" width="56" height="56" viewBox="0 0 56 56" fill="none">
  <path d="M56 28C56 35.4261 53.05 42.5479 47.799 47.799C42.548 53.05 35.4261 56 28 56C20.5739 56 13.452 53.05 8.201 47.799C2.94999 42.5479 0 35.4261 0 28C0 20.5739 2.94999 13.452 8.201 8.20099C13.452 2.94997 20.5739 0 28 0C35.4261 0 42.548 2.94997 47.799 8.20099C53.05 13.452 56 20.5739 56 28Z" fill="#D9DB4D"></path>
  <path d="M27.9891 41.6101C27.5986 41.5958 27.2232 41.4554 26.9191 41.2101C24.6511 39.3882 21.8282 38.3967 18.9191 38.4001C18.6091 38.4001 18.2991 38.4001 17.9891 38.4001C16.1811 38.5494 14.4306 39.1067 12.8691 40.0301C12.5809 40.1992 12.2531 40.2889 11.9191 40.2901C11.8126 40.3004 11.7055 40.3004 11.5991 40.2901C11.1604 40.2198 10.7623 39.9923 10.4791 39.6501C10.1953 39.3068 10.0398 38.8755 10.0391 38.4301V19.1601C10.0392 18.9013 10.0926 18.6452 10.1958 18.4079C10.299 18.1705 10.4499 17.9568 10.6391 17.7801C11.8901 16.6053 13.3713 15.7029 14.9891 15.1301C16.3609 14.6318 17.8095 14.3779 19.2691 14.3801H20.0091C22.4857 14.6171 24.8289 15.6123 26.7191 17.2301C26.9651 17.4399 27.1957 17.6672 27.4091 17.9101C27.638 18.1382 27.8183 18.4103 27.9391 18.7101V41.5701L27.9891 41.6101Z" stroke="black" stroke-width="2" stroke-linecap="round" stroke-linejoin="round"></path>
  <path d="M28 41.6101C28.3933 41.5944 28.7714 41.4543 29.08 41.2101C31.3472 39.3867 34.1706 38.395 37.08 38.4001C37.39 38.4001 37.71 38.4001 38.01 38.4001C39.8171 38.5538 41.5666 39.1108 43.13 40.0301C43.417 40.202 43.7455 40.2919 44.08 40.2901H44.4C44.835 40.2175 45.2292 39.9902 45.51 39.6501C45.7975 39.3089 45.9536 38.8763 45.95 38.4301V19.1601C45.9517 18.9019 45.9002 18.6461 45.7987 18.4087C45.6972 18.1713 45.5478 17.9573 45.36 17.7801C44.1059 16.6094 42.6255 15.7076 41.01 15.1301C39.6379 14.6328 38.1895 14.379 36.73 14.3801H35.99C33.5108 14.6189 31.1649 15.6138 29.27 17.2301C29.024 17.4399 28.7934 17.6672 28.58 17.9101C28.3519 18.1369 28.1747 18.4096 28.06 18.7101" stroke="black" stroke-width="2" stroke-linecap="round" stroke-linejoin="round"></path>
  <path d="M42.0204 21.77C41.3533 21.324 40.6304 20.9676 39.8704 20.71C38.874 20.3781 37.8306 20.2093 36.7804 20.21H36.2404C34.6856 20.3501 33.1921 20.8835 31.9004 21.76" stroke="black" stroke-width="2" stroke-linecap="round" stroke-linejoin="round"></path>
  <path d="M42.0204 26.75C41.3482 26.3285 40.6259 25.9926 39.8704 25.75C38.8757 25.4101 37.8315 25.2377 36.7804 25.24H36.2404C34.6856 25.3801 33.1921 25.9135 31.9004 26.79" stroke="black" stroke-width="2" stroke-linecap="round" stroke-linejoin="round"></path>
  <path d="M42.0204 31.74C41.3533 31.294 40.6304 30.9376 39.8704 30.68C38.8757 30.34 37.8315 30.1676 36.7804 30.1699H36.2404C34.6838 30.3087 33.1891 30.8459 31.9004 31.7299" stroke="black" stroke-width="2" stroke-linecap="round" stroke-linejoin="round"></path>
</svg>
