<?xml version="1.0" encoding="UTF-8"?>
<svg xmlns="http://www.w3.org/2000/svg" width="56" height="56" viewBox="0 0 56 56" fill="none">
  <path d="M56 28C56 35.4261 53.05 42.548 47.799 47.799C42.548 53.05 35.4261 56 28 56C20.5739 56 13.452 53.05 8.201 47.799C2.94999 42.548 0 35.4261 0 28C0 20.5739 2.94999 13.452 8.201 8.20099C13.452 2.94997 20.5739 0 28 0C35.4261 0 42.548 2.94997 47.799 8.20099C53.05 13.452 56 20.5739 56 28Z" fill="#D9DB4D"></path>
  <path d="M28.0009 47.4899C38.3784 47.4899 46.7909 39.0774 46.7909 28.6999C46.7909 18.3225 38.3784 9.90991 28.0009 9.90991C17.6235 9.90991 9.21094 18.3225 9.21094 28.6999C9.21094 39.0774 17.6235 47.4899 28.0009 47.4899Z" fill="#D9DB4D" stroke="black" stroke-width="2"></path>
  <path d="M28.0004 39.8001C34.1308 39.8001 39.1004 34.8305 39.1004 28.7001C39.1004 22.5697 34.1308 17.6001 28.0004 17.6001C21.87 17.6001 16.9004 22.5697 16.9004 28.7001C16.9004 34.8305 21.87 39.8001 28.0004 39.8001Z" fill="#D9DB4D" stroke="black" stroke-width="2"></path>
  <path d="M28.0001 32.12C29.8889 32.12 31.4201 30.5888 31.4201 28.7C31.4201 26.8112 29.8889 25.28 28.0001 25.28C26.1113 25.28 24.5801 26.8112 24.5801 28.7C24.5801 30.5888 26.1113 32.12 28.0001 32.12Z" fill="#D9DB4D" stroke="black" stroke-width="2"></path>
  <path d="M37.9708 36.7101C39.8596 36.7101 41.3908 35.1789 41.3908 33.2901C41.3908 31.4013 39.8596 29.8701 37.9708 29.8701C36.082 29.8701 34.5508 31.4013 34.5508 33.2901C34.5508 35.1789 36.082 36.7101 37.9708 36.7101Z" fill="#D9DB4D" stroke="black" stroke-width="2"></path>
  <path d="M16.9005 46.31C18.7893 46.31 20.3205 44.7788 20.3205 42.89C20.3205 41.0012 18.7893 39.47 16.9005 39.47C15.0117 39.47 13.4805 41.0012 13.4805 42.89C13.4805 44.7788 15.0117 46.31 16.9005 46.31Z" fill="#D9DB4D" stroke="black" stroke-width="2"></path>
  <path d="M28.0001 13.33C29.8889 13.33 31.4201 11.7988 31.4201 9.90999C31.4201 8.02117 29.8889 6.48999 28.0001 6.48999C26.1113 6.48999 24.5801 8.02117 24.5801 9.90999C24.5801 11.7988 26.1113 13.33 28.0001 13.33Z" fill="#D9DB4D" stroke="black" stroke-width="2"></path>
</svg>
