<?xml version="1.0" standalone="no"?>
<!DOCTYPE svg PUBLIC "-//W3C//DTD SVG 20010904//EN"
 "http://www.w3.org/TR/2001/REC-SVG-20010904/DTD/svg10.dtd">
<svg version="1.0" xmlns="http://www.w3.org/2000/svg"
 width="262.000000pt" height="262.000000pt" viewBox="0 0 262.000000 262.000000"
 preserveAspectRatio="xMidYMid meet">

<g transform="translate(0.000000,262.000000) scale(0.100000,-0.100000)"
fill="#000000" stroke="none">
<path d="M1219 2278 c-413 -31 -778 -357 -863 -771 -34 -161 -17 -383 39 -532
107 -284 356 -519 635 -598 154 -44 339 -51 488 -18 351 77 641 352 732 696
107 408 -51 830 -400 1064 -186 124 -397 178 -631 159z m279 -118 c229 -47
454 -213 570 -419 237 -424 84 -963 -339 -1195 -365 -200 -834 -110 -1093 212
-413 513 -140 1277 504 1407 98 20 250 18 358 -5z"/>
<path d="M1160 1954 c-229 -49 -430 -246 -490 -480 -59 -229 6 -460 175 -629
129 -130 284 -195 466 -195 181 0 333 64 464 195 165 164 228 380 180 610 -49
237 -254 443 -495 500 -80 18 -213 18 -300 -1z m255 -95 c243 -45 430 -255
452 -504 22 -264 -154 -514 -412 -586 -65 -18 -226 -18 -290 0 -147 41 -285
152 -350 280 -160 316 -5 688 330 794 90 29 176 34 270 16z"/>
<path d="M1210 1684 c-234 -63 -354 -322 -250 -540 116 -241 432 -296 623
-108 208 205 120 557 -161 644 -75 23 -136 24 -212 4z m209 -110 c87 -36 152
-116 171 -210 31 -149 -73 -302 -225 -334 -194 -40 -375 141 -335 335 36 175
226 277 389 209z"/>
</g>
</svg>
