<?xml version="1.0" encoding="UTF-8"?>
<svg xmlns="http://www.w3.org/2000/svg" width="56" height="56" viewBox="0 0 56 56" fill="none">
  <path d="M56 28C56 35.4261 53.05 42.548 47.799 47.799C42.548 53.05 35.4261 56 28 56C20.5739 56 13.452 53.05 8.201 47.799C2.94999 42.548 0 35.4261 0 28C0 20.5739 2.94999 13.4521 8.201 8.20105C13.452 2.95003 20.5739 0 28 0C35.4261 0 42.548 2.95003 47.799 8.20105C53.05 13.4521 56 20.5739 56 28Z" fill="#D9DB4D"></path>
  <path d="M36.8398 29.87C36.8395 28.6355 36.5781 27.415 36.073 26.2885C35.5679 25.1621 34.8304 24.1551 33.9088 23.3336C32.9873 22.5122 31.9025 21.8947 30.7256 21.5219C29.5487 21.149 28.3063 21.0291 27.0798 21.1701C25.0997 21.4034 23.2576 22.3021 21.855 23.7192C20.4525 25.1363 19.5727 26.9876 19.3598 28.9701C19.2235 30.3038 19.3952 31.651 19.8616 32.9079C20.3279 34.1649 21.0766 35.298 22.0498 36.2201C22.7122 36.8724 23.2367 37.6511 23.5923 38.51C23.9479 39.3689 24.1273 40.2905 24.1198 41.2201V42.3501C24.0983 42.7702 24.1617 43.1903 24.3061 43.5854C24.4506 43.9805 24.6733 44.3424 24.9608 44.6495C25.2483 44.9566 25.5947 45.2026 25.9794 45.3728C26.3641 45.543 26.7792 45.6339 27.1998 45.64H28.9598C29.7767 45.64 30.5601 45.3155 31.1377 44.7379C31.7153 44.1603 32.0398 43.3769 32.0398 42.56V41.15C32.0271 40.2453 32.1977 39.3474 32.5415 38.5104C32.8852 37.6734 33.3949 36.9147 34.0398 36.28C34.9237 35.4628 35.6289 34.4713 36.1107 33.3681C36.5926 32.2649 36.8409 31.0739 36.8398 29.87Z" stroke="black" stroke-width="2" stroke-linecap="round" stroke-linejoin="round"></path>
  <path d="M32.1195 40.04H24.0195" stroke="black" stroke-width="2" stroke-linecap="round" stroke-linejoin="round"></path>
  <path d="M30.1803 35.3001V31.8901L28.0003 33.5101L25.8203 31.8901V35.3001" stroke="black" stroke-width="2" stroke-linecap="round" stroke-linejoin="round"></path>
  <path d="M36.1507 42.82L38.7707 44.82C38.8684 44.8929 38.9891 44.9284 39.1107 44.92C39.2354 44.9121 39.3528 44.8587 39.4407 44.77L43.4407 40.77C43.5294 40.6821 43.5828 40.5647 43.5907 40.44C43.5981 40.3154 43.5628 40.192 43.4907 40.09L40.2407 35.79C40.6505 35.0276 40.9854 34.2271 41.2407 33.4L46.5807 32.65C46.704 32.6327 46.8173 32.5725 46.9007 32.48C46.9814 32.3847 47.0272 32.2648 47.0307 32.14V26.51C47.0272 26.3852 46.9814 26.2653 46.9007 26.17C46.8173 26.0775 46.704 26.0173 46.5807 26L41.2407 25.25C40.9854 24.4229 40.6505 23.6225 40.2407 22.86L43.4907 18.56C43.5628 18.4581 43.5981 18.3347 43.5907 18.21C43.5828 18.0854 43.5294 17.9679 43.4407 17.88L39.4407 13.88C39.3528 13.7913 39.2354 13.7379 39.1107 13.73C38.9892 13.7225 38.8688 13.7579 38.7707 13.83L34.4607 17.08C33.6979 16.6709 32.8975 16.3361 32.0707 16.08L31.3207 10.7401C31.3051 10.6162 31.2446 10.5023 31.1507 10.42C31.0572 10.3364 30.9362 10.2901 30.8107 10.29H25.1807C25.0559 10.2935 24.936 10.3394 24.8407 10.42C24.7501 10.5049 24.6903 10.6175 24.6707 10.7401L23.9207 16.08C23.0952 16.3397 22.2952 16.6744 21.5307 17.08L17.2307 13.83C17.1295 13.7564 17.0055 13.721 16.8807 13.73C16.7565 13.7397 16.6397 13.7928 16.5507 13.88L12.5507 17.88C12.462 17.9679 12.4086 18.0854 12.4007 18.21C12.3927 18.3363 12.4319 18.461 12.5107 18.56L15.7507 22.86C15.3493 23.6265 15.0147 24.4261 14.7507 25.25L9.41071 26C9.28885 26.0217 9.17689 26.0812 9.0907 26.17C9.01293 26.2663 8.97057 26.3863 8.9707 26.51V32.15C8.97057 32.2738 9.01293 32.3938 9.0907 32.4901C9.17689 32.5789 9.28885 32.6383 9.41071 32.66L14.7507 33.41C15.0129 34.2346 15.3476 35.0344 15.7507 35.8L12.5107 40.1C12.4319 40.199 12.3927 40.3237 12.4007 40.45C12.4086 40.5747 12.462 40.6921 12.5507 40.78L16.5507 44.78C16.6397 44.8673 16.7565 44.9204 16.8807 44.9301C17.0055 44.9391 17.1295 44.9036 17.2307 44.83L19.8407 42.83" stroke="black" stroke-width="2" stroke-linecap="round" stroke-linejoin="round"></path>
</svg>
